<svg xmlns="http://www.w3.org/2000/svg" width="1126.197" height="855" viewBox="0 0 1126.197 855"><defs><style>.a{fill:#d2d2d2}.b{fill:#3f3d56}.c{opacity:.1}.d{fill:#f2f2f2}.e{fill:#19b2f6}.f{fill:#2f2e41}.g{fill:#fbbebe}</style></defs><path d="M581.768,778.438C339.369,759.991,50.3,572.172,65.014,378.781S359.7,5.358,602.1,23.805,984.031,403.667,969.314,597.058,824.166,796.885,581.768,778.438Z" class="a" transform="translate(-36.903 -22.5)"/><ellipse cx="506" cy="31" class="b" rx="506" ry="31" transform="translate(59.194 725)"/><ellipse cx="431" cy="20.5" class="c" rx="431" ry="20.5" transform="translate(134.194 735)"/><ellipse cx="212.194" cy="18.5" class="b" rx="212.194" ry="18.5" transform="translate(0 818)"/><ellipse cx="180.742" cy="12.234" class="c" rx="180.742" ry="12.234" transform="translate(31.452 823.968)"/><rect width="752" height="590" class="b" transform="translate(196.194 162)"/><path d="M600.541,265.129H415.024a2.251,2.251,0,0,1,0-4.5H600.541a2.251,2.251,0,1,1,0,4.5Z" class="d" transform="translate(-36.903 -22.5)"/><path d="M803.62,289.895H511.835a2.251,2.251,0,1,1,0-4.5H803.62a2.251,2.251,0,1,1,0,4.5Z" class="d" transform="translate(-36.903 -22.5)"/><path d="M601.442,314.661H415.924a2.251,2.251,0,0,1,0-4.5H601.442a2.251,2.251,0,1,1,0,4.5Z" class="d" transform="translate(-36.903 -22.5)"/><path d="M803.62,315.111H618.1a2.251,2.251,0,0,1,0-4.5H803.62a2.251,2.251,0,1,1,0,4.5Z" class="d" transform="translate(-36.903 -22.5)"/><path d="M601.892,339.426H416.374a2.251,2.251,0,0,1,0-4.5H601.892a2.251,2.251,0,0,1,0,4.5Z" class="d" transform="translate(-36.903 -22.5)"/><path d="M602.342,364.192H416.825a2.251,2.251,0,0,1,0-4.5H602.342a2.251,2.251,0,0,1,0,4.5Z" class="d" transform="translate(-36.903 -22.5)"/><path d="M686.546,265.579H633.412a2.251,2.251,0,1,1,0-4.5h53.134a2.251,2.251,0,0,1,0,4.5Z" class="d" transform="translate(-36.903 -22.5)"/><path d="M686.546,339.426H633.412a2.251,2.251,0,1,1,0-4.5h53.134a2.251,2.251,0,0,1,0,4.5Z" class="d" transform="translate(-36.903 -22.5)"/><path d="M686.546,363.742H633.412a2.251,2.251,0,0,1,0-4.5h53.134a2.251,2.251,0,0,1,0,4.5Z" class="d" transform="translate(-36.903 -22.5)"/><path d="M775.7,363.742H722.569a2.251,2.251,0,0,1,0-4.5H775.7a2.251,2.251,0,0,1,0,4.5Z" class="d" transform="translate(-36.903 -22.5)"/><path d="M467.707,289.895H414.573a2.251,2.251,0,0,1,0-4.5h53.134a2.251,2.251,0,0,1,0,4.5Z" class="d" transform="translate(-36.903 -22.5)"/><path d="M600.766,629.861H415.249a2.251,2.251,0,1,1,0-4.5H600.766a2.251,2.251,0,1,1,0,4.5Z" class="d" transform="translate(-36.903 -22.5)"/><path d="M599.866,679.392H414.348a2.251,2.251,0,1,1,0-4.5H599.866a2.251,2.251,0,0,1,0,4.5Z" class="d" transform="translate(-36.903 -22.5)"/><path d="M600.316,704.158H414.8a2.251,2.251,0,1,1,0-4.5H600.316a2.251,2.251,0,0,1,0,4.5Z" class="d" transform="translate(-36.903 -22.5)"/><path d="M679.566,679.842H626.433a2.251,2.251,0,1,1,0-4.5h53.134a2.251,2.251,0,0,1,0,4.5Z" class="d" transform="translate(-36.903 -22.5)"/><path d="M679.566,704.158H626.433a2.251,2.251,0,1,1,0-4.5h53.134a2.251,2.251,0,1,1,0,4.5Z" class="d" transform="translate(-36.903 -22.5)"/><path d="M768.723,679.842H715.589a2.251,2.251,0,1,1,0-4.5h53.134a2.251,2.251,0,0,1,0,4.5Z" class="d" transform="translate(-36.903 -22.5)"/><path d="M803.845,654.626H512.06a2.251,2.251,0,0,1,0-4.5H803.845a2.251,2.251,0,1,1,0,4.5Z" class="d" transform="translate(-36.903 -22.5)"/><path d="M467.932,654.626H414.8a2.251,2.251,0,0,1,0-4.5h53.134a2.251,2.251,0,0,1,0,4.5Z" class="d" transform="translate(-36.903 -22.5)"/><path d="M803.845,729.374H512.06a2.251,2.251,0,1,1,0-4.5H803.845a2.251,2.251,0,1,1,0,4.5Z" class="d" transform="translate(-36.903 -22.5)"/><path d="M467.932,729.374H414.8a2.251,2.251,0,1,1,0-4.5h53.134a2.251,2.251,0,0,1,0,4.5Z" class="d" transform="translate(-36.903 -22.5)"/><path d="M519.06,401.13l-72.046,71.145L519.06,543.42l16.21-16.21-54.484-54.485L535.72,417.79Z" class="e"/><path d="M625.327,401.13l72.046,71.145L625.327,543.42l-16.21-16.21L663.6,472.725,608.667,417.79Z" class="e"/><circle cx="9" cy="9" r="9" class="e" transform="translate(207.194 168)"/><circle cx="9" cy="9" r="9" class="e" transform="translate(231.194 168)"/><circle cx="9" cy="9" r="9" class="e" transform="translate(255.194 168)"/><rect width="752" height="3" class="c" transform="translate(196.194 192)"/><path d="M1163.1,629.954c0,63.771-37.911,86.038-84.676,86.038s-84.676-22.266-84.676-86.038,84.676-144.9,84.676-144.9S1163.1,566.182,1163.1,629.954Z" class="a" transform="translate(-36.903 -22.5)"/><path d="M1038.43,683.736l.87-53.371,36.09-66.027-35.95,57.655.39-24,24.87-47.769-24.77,41.419h0l.7-43.161,26.64-38.031L1040.74,541.7l.44-79.141-2.75,104.769.22-4.322-27.08-41.451,26.65,49.748-2.53,48.2-.07-1.28L1004.4,574.6l31.12,48.141-.31,6.028-.06.091.03.495-6.4,122.3h8.55l1.02-63.168,31.05-48.024Z" class="b"/><path d="M159.525,773.591a43.127,43.127,0,0,1-8.178,3.5c-5.079,1.387-10.507.878-15.637,2.063-2.1.485-4.386,1.5-5.054,3.549-.49,1.5.043,3.127.553,4.623,5.669,16.62,9.085,34.266,18.125,49.32a74.641,74.641,0,0,0,13.993,16.988c2.055,1.852,4.384,3.664,7.135,3.955a7.248,7.248,0,0,0,7.371-10.182c-.811-1.8-2.317-3.2-3.289-4.916a18.757,18.757,0,0,1-1.819-6.991c-.893-7.108-1.753-14.538.709-21.265,1.652-4.512,4.682-8.359,7.206-12.448s4.622-8.772,4.06-13.544c-.383-3.257-1.972-6.237-3.65-9.054s-5-10.408-8.383-11.35C169.16,766.864,162.583,772.024,159.525,773.591Z" class="f" transform="translate(-36.903 -22.5)"/><path d="M251.96,831a14.019,14.019,0,0,1-.663,4.745c-1.058,2.793-3.681,4.706-5.036,7.367-1.885,3.7-1.031,8.174.218,12.135.783,2.483,1.81,5.067,3.912,6.6a12.894,12.894,0,0,0,5.954,1.907c18.036,2.5,36.358,1.064,54.559,1.587,3.317.1,6.829.211,9.725-1.41s4.686-5.7,2.717-8.368c-1.769-2.4-5.265-2.376-8.242-2.518a33.912,33.912,0,0,1-20.913-8.615,15.111,15.111,0,0,1-2.933-3.377,20.75,20.75,0,0,1-1.534-3.518,156.8,156.8,0,0,0-9.084-20.119c-.979-1.815-2.087-3.7-3.906-4.676a10.322,10.322,0,0,0-4.239-.926c-4.536-.294-16.283-1.838-19.791,1.69C249.461,816.768,252.032,826.86,251.96,831Z" class="f" transform="translate(-36.903 -22.5)"/><circle cx="28.975" cy="28.975" r="28.975" class="g" transform="translate(213.996 347.745)"/><path d="M253.709,423.146c-1.723,4.614-4.647,8.947-8.9,11.43l40.075,8.175a42.453,42.453,0,0,1-.562-17.869,10.3,10.3,0,0,0,.24-4.409c-.754-2.907-4.026-4.307-6.955-4.974-7.314-1.667-13.782-2.561-20.579-5.792C254.95,413.263,255.241,419.045,253.709,423.146Z" class="g" transform="translate(-36.903 -22.5)"/><path d="M244.474,423.727a31.338,31.338,0,0,1,27.313.714c5.138,2.707,9.392,6.794,13.572,10.827,3.853,3.717,7.962,7.972,8.236,13.319.132,2.59-.676,5.123-1.084,7.684a25.766,25.766,0,0,0,13.78,26.469c3.184,5.3,3.841,11.729,3.889,17.914.185,23.436-7.209,47.161-1.93,70,1.239,5.361,3.162,10.554,4.232,15.951,1.387,6.991,1.318,14.18,2.044,21.27a95.266,95.266,0,0,0,5.113,22.5c-1.744,2.774-5.374,3.837-8.642,3.613s-6.325-1.643-9.242-3.136c-14.123-7.227-27.059-16.757-41.687-22.9-9.678-4.064-19.988-6.595-29.376-11.288s-18.12-12.142-20.99-22.238c-1.241-4.365-1.318-8.965-1.385-13.5-.285-19.114-.55-38.436,3.61-57.094,3.669-16.454,10.742-32.194,12.284-48.981.5-5.464.513-11.314,3.566-15.873C232.091,432.52,241.409,430.851,244.474,423.727Z" class="f" transform="translate(-36.903 -22.5)"/><path d="M263.395,399.629c1.707-2.227,5-2.531,7.728-1.872s5.243,2.064,8,2.6a4.675,4.675,0,0,0,3.743-.526,5.444,5.444,0,0,0,1.615-3.57,68.163,68.163,0,0,0,.671-17.38,5.146,5.146,0,0,1,.159-2.437c.682-1.643,2.763-2.035,4.462-2.562a13.316,13.316,0,0,0,9.013-13.633,5.421,5.421,0,0,0-1.657-3.741c-1.175-.958-2.82-1.016-4.336-1.029q-11.683-.094-23.367.006c-2.883.025-5.91.1-8.409,1.533-1.848,1.063-3.222,2.773-4.88,4.112-4.326,3.491-10.178,4.2-15.441,5.991a15.308,15.308,0,0,0-6.768,4.036c-1.75,2-2.592,4.973-1.493,7.393a26.253,26.253,0,0,0,1.887,2.9c3.1,4.964,1.038,11.4,1.5,17.24.579,7.288,11.365,19.112,18.679,20.836C266.308,422.311,259.486,404.414,263.395,399.629Z" class="f" transform="translate(-36.903 -22.5)"/><path d="M247.038,719.183c.745,5.322,1.7,10.662,1.445,16.029-.357,7.494-3.059,14.714-3.559,22.2-.373,5.591.49,11.242-.287,16.791-.5,3.553-1.656,6.979-2.373,10.494a43.4,43.4,0,0,0,6.973,33.265,5.447,5.447,0,0,0,2.023,1.961,5.714,5.714,0,0,0,2.508.332,179.964,179.964,0,0,0,25.17-2.288,2.414,2.414,0,0,0,1.616-.713,2.266,2.266,0,0,0,.351-.954c1.544-7.936-1.977-15.893-2.872-23.928-.956-8.58,1.1-17.177,3.146-25.565a113.546,113.546,0,0,1,3.467-12.228c.988-2.7,2.181-5.321,3.037-8.063a61.463,61.463,0,0,0,2.2-13.2q.892-10.575.945-21.2a88.958,88.958,0,0,0-1.665-20.01c-1.878-8.338-5.724-16.081-9.536-23.73a15.028,15.028,0,0,0-5.618,2.67,125.378,125.378,0,0,1-15.35,8.481c-3.567,1.657-10.522,2.833-12.786,6.286-2.232,3.4-.792,10.351-.621,14.106Q245.694,709.584,247.038,719.183Z" class="f" transform="translate(-36.903 -22.5)"/><path d="M247.038,719.183c.745,5.322,1.7,10.662,1.445,16.029-.357,7.494-3.059,14.714-3.559,22.2-.373,5.591.49,11.242-.287,16.791-.5,3.553-1.656,6.979-2.373,10.494a43.4,43.4,0,0,0,6.973,33.265,5.447,5.447,0,0,0,2.023,1.961,5.714,5.714,0,0,0,2.508.332,179.964,179.964,0,0,0,25.17-2.288,2.414,2.414,0,0,0,1.616-.713,2.266,2.266,0,0,0,.351-.954c1.544-7.936-1.977-15.893-2.872-23.928-.956-8.58,1.1-17.177,3.146-25.565a113.546,113.546,0,0,1,3.467-12.228c.988-2.7,2.181-5.321,3.037-8.063a61.463,61.463,0,0,0,2.2-13.2q.892-10.575.945-21.2a88.958,88.958,0,0,0-1.665-20.01c-1.878-8.338-5.724-16.081-9.536-23.73a15.028,15.028,0,0,0-5.618,2.67,125.378,125.378,0,0,1-15.35,8.481c-3.567,1.657-10.522,2.833-12.786,6.286-2.232,3.4-.792,10.351-.621,14.106Q245.694,709.584,247.038,719.183Z" class="c" transform="translate(-36.903 -22.5)"/><path d="M207.864,605.518c-3.848,10.359,1.808,21.554,6.722,31.452,12.106,24.386,20.513,50.407,28.874,76.317.626,1.941,1.252,4.058.554,5.974a7.825,7.825,0,0,1-2.822,3.347c-5.766,4.379-13.107,5.939-19.975,8.23a90.18,90.18,0,0,0-18.943,8.88c-4.977,3.084-9.639,6.644-14.292,10.2l-14.812,11.313a9.9,9.9,0,0,0-2.476,2.4c-1.429,2.241-.843,5.167-.132,7.728a131.434,131.434,0,0,0,7.252,19.792,6.911,6.911,0,0,0,2.63,3.447c2.312,1.242,5.14-.405,6.905-2.347s3.292-4.359,5.781-5.193,5.222.176,7.818-.189c4.2-.589,6.986-4.457,10.013-7.427,12.365-12.131,33.01-11.251,46.612-21.977a59.224,59.224,0,0,1,6.231-4.868c2.3-1.359,4.907-2.105,7.293-3.307,7.257-3.654,11.819-11.208,14.262-18.957s3.141-15.928,4.9-23.86c.908-4.1,2.1-8.158,2.507-12.339a66.093,66.093,0,0,0-.253-11.666L287.6,621.748c-.4-4.943-.8-9.892-1.576-14.791-14.577.521-29.143,1.108-43.728,1.28C230.7,608.374,218.876,609.186,207.864,605.518Z" class="f" transform="translate(-36.903 -22.5)"/><path d="M202.506,619.721c1.977,3.18,6.79,3.114,10.1,1.371s5.889-4.673,9.211-6.4c4.464-2.323,9.746-2.235,14.776-2.093,7.964.225,16.025.464,23.687,2.647,7.925,2.257,15.64,6.6,23.834,5.736,1.426-.151,2.985-.56,3.761-1.766a5.544,5.544,0,0,0,.62-2.836l.268-7.159a6.464,6.464,0,0,0-.57-3.625,6.082,6.082,0,0,0-2.716-2.079c-11.663-5.646-24.965-6.7-37.915-7.141q-9.875-.338-19.758-.278c-5.591.034-12.3-.775-17.739.719C202.774,598.82,198.8,613.769,202.506,619.721Z" class="f" transform="translate(-36.903 -22.5)"/><path d="M275.742,432.226c-15.282-.135-29.131-10.223-44.412-10.468a11.515,11.515,0,0,0-5.393.93c-2.129,1.073-3.529,3.147-5.147,4.9-4.518,4.893-11.061,7.505-15.7,12.281-4.352,4.478-6.773,11.15-5.055,17.153s8.2,10.608,14.279,9.165a36.8,36.8,0,0,1,14.338-19.48,72.888,72.888,0,0,1,11.205-5.882c6.868-3.112,14.548-6.283,21.718-3.95a30.639,30.639,0,0,1,7.409,4.04l11.954,8.03C279.543,443.45,278.29,437.288,275.742,432.226Z" class="e" transform="translate(-36.903 -22.5)"/><path d="M212.552,460.874c-2.029,2.532.894,6.2.447,9.413-.3,2.135-2.054,3.765-2.786,5.793-.758,2.1-.356,4.427-.643,6.641a28.489,28.489,0,0,1-1.275,4.73,84.974,84.974,0,0,0-2.686,14.026l-2.675,19.976a75.678,75.678,0,0,0-.846,9.078,27.107,27.107,0,0,1-.452,6.787c-.592,2.183-1.9,4.093-2.786,6.176s-1.291,4.6-.1,6.524c-3.991,3.325-5.178,9.854-2.387,14.235a7.9,7.9,0,0,1,1.23,2.265,5.82,5.82,0,0,1-.542,3.34l-2.7,7.207c-.692,1.845-.911,4.653,1.014,5.074a17,17,0,0,0-3.651,5.767,6.866,6.866,0,0,0,.972,6.506,8.289,8.289,0,0,1,1.694,2.056,5.473,5.473,0,0,1-.2,3.243,11.906,11.906,0,0,0,1.473,9.333,8.372,8.372,0,0,0,8.418,3.609c5.41-1.22,10.272-3.147,15.728-2.146,11.746,2.155,23.53,4.32,34.906,7.952,12.984,4.145,25.556,10.224,39.126,11.5a3.8,3.8,0,0,0,2.617-.407,3.93,3.93,0,0,0,1.21-2.488L301.85,607.4a202.375,202.375,0,0,0,3.855-22.028c.477-4.781.613-9.589.749-14.392l1.081-38.231a38.2,38.2,0,0,0-2.2-16.62l-6.217-19.848c-3.548-11.327-11.688-21.371-14.586-32.882-1.834-7.285-3.189-15.1-8.108-20.781-7.012-8.095-19.145-9.354-29.764-7.962-4.8.629-9.636,1.714-13.785,4.2-4.8,2.877-8.333,7.409-11.753,11.836C218.3,454.343,215.436,457.276,212.552,460.874Z" class="e" transform="translate(-36.903 -22.5)"/><path d="M237.347,573.323c.875,3.773,2.712,7.251,3.837,10.957,1.884,6.209,1.724,12.9,3.605,19.105.789,2.606,1.933,5.109,2.5,7.773,1.321,6.211-.608,12.636-3,18.516s-5.313,11.678-6.091,17.98c-.548,4.438.239,9.45,3.66,12.331,3.552,2.99,8.713,2.788,13.339,2.39a14.016,14.016,0,0,0,4.841-1.008c3.538-1.674,5.028-5.86,5.855-9.685,2.771-12.819,1.98-26.106,1.174-39.2l-2.106-34.234c-.405-6.591-.84-13.318-2.871-19.646-.739-2.3-2.026-6.954-4.129-8.424-2.083-1.456-8.03-1.521-10.609-1.642C235.251,547.97,235.387,564.856,237.347,573.323Z" class="g" transform="translate(-36.903 -22.5)"/><path d="M250.751,446.923c-2.471-1.294-5.584-.736-7.972.7a24.568,24.568,0,0,0-5.972,5.8c-5.339,6.517-10.991,13.995-10.2,22.382.3,3.145,1.5,6.121,2.317,9.172,3.579,13.38-.379,27.53.075,41.373.262,8,2,15.866,3.736,23.679.354,1.594.92,3.44,2.463,3.977,1.159.4,2.41-.115,3.557-.551a28.371,28.371,0,0,1,25.964,3.273c2.865-1.529,1.791-6.363,1.149-9.546-1.908-9.458.682-19.214,3.828-28.335s6.911-18.23,7.432-27.865c.591-10.916-3.029-21.571-6.6-31.9-.779-2.255-1.631-4.62-3.439-6.178a13.666,13.666,0,0,0-5.2-2.377C258.1,449.406,254.255,448.758,250.751,446.923Z" class="f" transform="translate(-36.903 -22.5)"/></svg>