<svg width="1558" height="298" viewBox="0 0 1558 298" fill="none" xmlns="http://www.w3.org/2000/svg">
<path d="M0.640625 291C0.640625 288.188 2.46875 286.125 6.125 284.812C32.1875 274.688 58.25 243.75 84.3125 192C104.75 151.5 120.781 108.844 132.406 64.0312C137 46.3125 139.297 33.5156 139.297 25.6406C139.297 22.7344 138.641 21.2812 137.328 21.2812C124.953 21.2812 109.297 30.75 90.3594 49.6875C88.4844 51.5625 86.375 52.5 84.0312 52.5C81.7812 52.5 79.5312 52.0313 77.2812 51.0938C75.125 50.1562 73.1562 48.9375 71.375 47.4375C67.1562 44.1563 65.0469 40.8281 65.0469 37.4531C65.0469 33.9844 66.125 30.7969 68.2812 27.8906C70.4375 24.9844 73.3438 22.1719 77 19.4531C80.6562 16.7344 84.8281 14.25 89.5156 12C94.2031 9.65625 99.125 7.59375 104.281 5.8125C115.156 2.15625 123.5 0.328125 129.312 0.328125C135.219 0.328125 140.375 0.703125 144.781 1.45312C149.188 2.10938 153.406 3.28125 157.438 4.96875C167.188 9.1875 172.062 15.2344 172.062 23.1094C172.062 37.1719 167.656 59.625 158.844 90.4688C149.469 123.094 137.188 155.016 122 186.234C100.062 230.109 76.9062 261.656 52.5312 280.875C38.2812 292.125 24.7812 297.75 12.0312 297.75C7.25 297.75 3.78125 296.484 1.625 293.953C0.96875 293.109 0.640625 292.125 0.640625 291ZM308.328 182.156C308.328 191.156 311.656 195.656 318.312 195.656C322.25 195.656 325.812 194.812 329 193.125C332.281 191.438 334.391 190.594 335.328 190.594C337.297 190.594 338.281 191.625 338.281 193.688C338.281 201.938 333.875 208.875 325.062 214.5C319.062 218.438 313.344 220.406 307.906 220.406C302.469 220.406 298.062 219.797 294.688 218.578C291.406 217.266 288.547 215.25 286.109 212.531C280.953 206.906 278.375 198.516 278.375 187.359C278.375 178.547 280.016 168.328 283.297 156.703C286.578 145.078 288.969 136.828 290.469 131.953L275.844 154.172C245.562 198.328 220.016 220.406 199.203 220.406C185.047 220.406 175.719 214.5 171.219 202.688C169.812 198.844 169.109 195.469 169.109 192.562V187.219C169.109 175.406 175.719 153.75 188.938 122.25L218.188 54.1875C223.812 40.6875 226.625 32.3438 226.625 29.1562C226.625 25.9687 226.062 23.5781 224.938 21.9844C223.812 20.3906 222.547 19.125 221.141 18.1875L217.344 15.375C216.219 14.625 215.656 13.5 215.656 12C215.656 10.5 216.406 9 217.906 7.5C219.406 6 221.375 4.6875 223.812 3.5625C228.688 1.40625 233.469 0.328125 238.156 0.328125C242.938 0.328125 246.594 0.84375 249.125 1.875C251.75 2.8125 253.906 4.03125 255.594 5.53125C258.875 8.625 260.516 12.375 260.516 16.7812C260.516 21.0938 259.672 26.2031 257.984 32.1094C256.391 38.0156 254.234 44.4844 251.516 51.5156C248.891 58.4531 245.844 65.8125 242.375 73.5938L221 120.562C207.406 150.469 200.609 170.25 200.609 179.906V182.016C200.609 190.922 203.984 195.375 210.734 195.375C223.109 195.375 239.188 179.859 258.969 148.828C264.875 139.641 270.781 129.938 276.688 119.719L293.844 88.2188C318.406 40.6875 332.562 13.5937 336.312 6.9375C338.188 3.5625 340.859 1.875 344.328 1.875C347.797 1.875 350.703 2.39063 353.047 3.42188C355.391 4.35938 357.406 5.625 359.094 7.21875C363.031 10.9688 364.016 14.7187 362.047 18.4688C353.141 35.4375 342.312 62.5781 329.562 99.8906C315.406 140.953 308.328 168.375 308.328 182.156ZM378.781 164.297L377.516 175.125C377.516 186.469 381.312 194.203 388.906 198.328C391.531 199.734 394.672 200.438 398.328 200.438C401.984 200.438 405.266 199.828 408.172 198.609C411.078 197.297 413.469 195.609 415.344 193.547C419.281 189.328 421.25 184.453 421.25 178.922C421.25 173.391 420.125 168.375 417.875 163.875C415.625 159.375 412.812 154.875 409.438 150.375L398.188 136.594C389.094 125.719 383 115.828 379.906 106.922C376.812 97.9219 375.266 89.6719 375.266 82.1719C375.266 74.6719 376.156 67.5938 377.938 60.9375C379.812 54.1875 382.391 47.8125 385.672 41.8125C388.953 35.7188 392.891 30.1406 397.484 25.0781C402.078 20.0156 407.188 15.6562 412.812 12C424.531 4.125 436.156 0.1875 447.688 0.1875C459.219 0.1875 468.219 1.78125 474.688 4.96875C481.156 8.15625 486.359 12.1875 490.297 17.0625C497.609 26.25 501.266 37.3594 501.266 50.3906C501.266 62.4844 497.844 73.875 491 84.5625C484.719 94.3125 477.688 100.5 469.906 103.125C468.219 103.969 465.875 104.391 462.875 104.391C459.969 104.391 457.484 103.969 455.422 103.125C453.453 102.188 451.719 100.969 450.219 99.4688C446.938 96.1875 445.297 92.625 445.297 88.7812C445.297 86.1562 446.094 84.4219 447.688 83.5781C454.812 79.7344 461 74.1562 466.25 66.8438C471.969 58.875 474.969 50.9531 475.25 43.0781C475.531 35.1094 473.609 29.25 469.484 25.5C465.453 21.6563 460.062 19.7344 453.312 19.7344C446.562 19.7344 440.469 21.2812 435.031 24.375C429.594 27.375 424.906 31.4531 420.969 36.6094C412.531 47.6719 408.312 60.75 408.312 75.8438C408.312 85.875 411.781 96.4688 418.719 107.625C421.625 112.406 424.766 117.141 428.141 121.828C431.609 126.422 434.844 131.156 437.844 136.031C444.688 147.375 448.109 157.547 448.109 166.547C448.109 175.547 446.469 183.141 443.188 189.328C440 195.516 435.734 200.906 430.391 205.5C418.859 215.438 405.734 220.406 391.016 220.406C377.141 220.406 366.453 216.281 358.953 208.031C352.953 201.375 349.953 194.156 349.953 186.375C349.953 177.938 352.344 170.812 357.125 165C360.781 160.594 364.297 157.969 367.672 157.125C375.078 155.156 378.781 157.547 378.781 164.297ZM651.453 26.7656C648.734 28.7344 645.547 30.2344 641.891 31.2656C638.328 32.2031 633.5 32.6719 627.406 32.6719C621.406 32.6719 613.578 32.25 603.922 31.4062C601.672 37.5 599.375 44.625 597.031 52.7812L580.859 107.906C560.891 173.906 539.609 210.938 517.016 219C515.422 219.656 513.359 219.984 510.828 219.984C508.391 219.984 506.375 219.656 504.781 219C503.281 218.438 502.016 217.688 500.984 216.75C498.922 215.062 497.891 213.375 497.891 211.688C497.891 210 498.312 208.875 499.156 208.312L502.812 206.062C516.312 197.25 528.688 173.812 539.938 135.75L550.062 101.438C559.156 70.5938 567.641 46.3594 575.516 28.7344C568.109 28.0781 562.484 27.75 558.641 27.75C547.578 27.75 539.609 29.2969 534.734 32.3906C529.953 35.4844 526.578 38.8594 524.609 42.5156C522.734 46.0781 521.75 48.5625 521.656 49.9688C521.375 52.5938 520.531 54.2813 519.125 55.0312C517.719 55.6875 515.984 56.0156 513.922 56.0156C511.953 56.0156 509.891 55.3125 507.734 53.9062C505.578 52.4062 503.797 50.5312 502.391 48.2812C499.391 43.6875 498.219 38.5313 498.875 32.8125C499.531 27 501.406 22.0312 504.5 17.9062C507.688 13.6875 511.438 10.2656 515.75 7.64062C523.719 2.76562 532.109 0.328125 540.922 0.328125C549.828 0.328125 558.219 0.796875 566.094 1.73438C574.062 2.57812 581.984 3.5625 589.859 4.6875C610.766 7.5 624.078 8.90625 629.797 8.90625C635.516 8.90625 639.734 8.57813 642.453 7.92188C645.266 7.26562 647.656 6.28125 649.625 4.96875C651.594 3.65625 652.953 2.8125 653.703 2.4375C654.547 1.96875 655.859 1.73438 657.641 1.73438C660.453 1.73438 661.672 3.89062 661.297 8.20312C660.922 12.4219 659.891 16.0781 658.203 19.1719C656.516 22.1719 654.266 24.7031 651.453 26.7656Z" fill="#821E1E"/>
<path d="M875.891 26.7656C873.172 28.7344 869.984 30.2344 866.328 31.2656C862.766 32.2031 857.938 32.6719 851.844 32.6719C845.844 32.6719 838.016 32.25 828.359 31.4062C826.109 37.5 823.812 44.625 821.469 52.7812L805.297 107.906C785.328 173.906 764.047 210.938 741.453 219C739.859 219.656 737.797 219.984 735.266 219.984C732.828 219.984 730.812 219.656 729.219 219C727.719 218.438 726.453 217.688 725.422 216.75C723.359 215.062 722.328 213.375 722.328 211.688C722.328 210 722.75 208.875 723.594 208.312L727.25 206.062C740.75 197.25 753.125 173.812 764.375 135.75L774.5 101.438C783.594 70.5938 792.078 46.3594 799.953 28.7344C792.547 28.0781 786.922 27.75 783.078 27.75C772.016 27.75 764.047 29.2969 759.172 32.3906C754.391 35.4844 751.016 38.8594 749.047 42.5156C747.172 46.0781 746.188 48.5625 746.094 49.9688C745.812 52.5938 744.969 54.2813 743.562 55.0312C742.156 55.6875 740.422 56.0156 738.359 56.0156C736.391 56.0156 734.328 55.3125 732.172 53.9062C730.016 52.4062 728.234 50.5312 726.828 48.2812C723.828 43.6875 722.656 38.5313 723.312 32.8125C723.969 27 725.844 22.0312 728.938 17.9062C732.125 13.6875 735.875 10.2656 740.188 7.64062C748.156 2.76562 756.547 0.328125 765.359 0.328125C774.266 0.328125 782.656 0.796875 790.531 1.73438C798.5 2.57812 806.422 3.5625 814.297 4.6875C835.203 7.5 848.516 8.90625 854.234 8.90625C859.953 8.90625 864.172 8.57813 866.891 7.92188C869.703 7.26562 872.094 6.28125 874.062 4.96875C876.031 3.65625 877.391 2.8125 878.141 2.4375C878.984 1.96875 880.297 1.73438 882.078 1.73438C884.891 1.73438 886.109 3.89062 885.734 8.20312C885.359 12.4219 884.328 16.0781 882.641 19.1719C880.953 22.1719 878.703 24.7031 875.891 26.7656ZM857.75 154.875C858.125 143.625 859.859 131.812 862.953 119.438C866.141 106.969 870.453 94.9688 875.891 83.4375C881.328 71.9062 887.75 61.0781 895.156 50.9531C902.656 40.8281 910.859 32.0156 919.766 24.5156C938.891 8.39062 958.953 0.328125 979.953 0.328125C1005.45 0.328125 1022.09 11.9062 1029.88 35.0625C1032.69 43.2188 1033.91 53.2969 1033.53 65.2969C1033.25 77.2031 1031.42 89.3438 1028.05 101.719C1024.77 114.094 1020.27 126.047 1014.55 137.578C1008.92 149.109 1002.31 159.938 994.719 170.062C987.125 180.094 978.875 188.812 969.969 196.219C950.938 212.344 931.906 220.406 912.875 220.406C895.812 220.406 882.266 214.828 872.234 203.672C862.016 192.234 857.188 175.969 857.75 154.875ZM903.594 100.875C898.812 111.75 894.922 122.859 891.922 134.203C889.016 145.547 887.422 155.203 887.141 163.172C886.953 171.047 887.422 177.188 888.547 181.594C889.766 185.906 891.453 189.562 893.609 192.562C898.109 198.938 903.875 202.125 910.906 202.125C918.031 202.125 925.156 199.828 932.281 195.234C939.406 190.641 946.297 184.5 952.953 176.812C959.703 169.125 966.078 160.266 972.078 150.234C978.172 140.203 983.516 129.75 988.109 118.875C1001.42 87.2812 1006.3 61.2188 1002.73 40.6875C1000.3 26.4375 992.516 19.3125 979.391 19.3125C967.391 19.3125 954.031 27.4688 939.312 43.7812C925.438 58.9688 913.531 78 903.594 100.875ZM1042.81 185.812C1043.66 179.719 1045.44 171.328 1048.16 160.641C1050.97 149.859 1054.53 138.375 1058.84 126.188C1068.69 98.25 1080.36 73.3594 1093.86 51.5156C1095.73 48.5156 1098.12 46.7812 1101.03 46.3125C1105.16 45.75 1108.77 45.4688 1111.86 45.4688C1115.05 45.4688 1117.86 45.8438 1120.3 46.5938C1122.83 47.25 1124.8 48.1406 1126.2 49.2656C1129.02 51.6094 1129.48 54.0937 1127.61 56.7188C1110.64 82.3125 1095.83 113.531 1083.17 150.375C1078.39 164.438 1075.53 174.234 1074.59 179.766C1073.66 185.203 1072.95 188.953 1072.48 191.016C1072.11 192.984 1071.92 194.719 1071.92 196.219C1071.92 199.312 1073.89 200.859 1077.83 200.859C1081.77 200.859 1086.17 199.969 1091.05 198.188C1095.92 196.312 1101.17 193.734 1106.8 190.453C1112.42 187.078 1118.23 183 1124.23 178.219C1130.33 173.438 1136.28 168.094 1142.09 162.188C1147.91 156.188 1153.39 149.719 1158.55 142.781C1163.7 135.844 1168.2 128.531 1172.05 120.844C1180.58 103.969 1184.84 87.3281 1184.84 70.9219C1184.84 48.4219 1175.7 33.4688 1157.42 26.0625C1151.05 23.5312 1144.39 22.2656 1137.45 22.2656C1130.61 22.2656 1124.8 22.7344 1120.02 23.6719C1115.23 24.5156 1110.64 25.7344 1106.23 27.3281C1097.33 30.5156 1089.83 34.7812 1083.73 40.125C1082.14 41.0625 1080.22 41.5312 1077.97 41.5312C1075.72 41.5312 1073.28 40.875 1070.66 39.5625C1068.12 38.25 1065.83 36.6094 1063.77 34.6406C1059.08 30.0469 1057.2 25.6406 1058.14 21.4219C1059.17 15.4219 1068.17 10.2187 1085.14 5.8125C1099.39 2.15625 1113.73 0.328125 1128.17 0.328125C1142.61 0.328125 1155.59 2.29688 1167.12 6.23438C1178.75 10.1719 1188.17 15.4688 1195.39 22.125C1208.89 34.6875 1215.64 51.5156 1215.64 72.6094C1215.64 100.547 1205.98 127.5 1186.67 153.469C1168.95 177.562 1147.86 195.844 1123.39 208.312C1107.55 216.375 1092.97 220.406 1079.66 220.406C1069.25 220.406 1060.3 217.359 1052.8 211.266C1044.73 204.797 1041.41 196.312 1042.81 185.812ZM1228.16 154.875C1228.53 143.625 1230.27 131.812 1233.36 119.438C1236.55 106.969 1240.86 94.9688 1246.3 83.4375C1251.73 71.9062 1258.16 61.0781 1265.56 50.9531C1273.06 40.8281 1281.27 32.0156 1290.17 24.5156C1309.3 8.39062 1329.36 0.328125 1350.36 0.328125C1375.86 0.328125 1392.5 11.9062 1400.28 35.0625C1403.09 43.2188 1404.31 53.2969 1403.94 65.2969C1403.66 77.2031 1401.83 89.3438 1398.45 101.719C1395.17 114.094 1390.67 126.047 1384.95 137.578C1379.33 149.109 1372.72 159.938 1365.12 170.062C1357.53 180.094 1349.28 188.812 1340.38 196.219C1321.34 212.344 1302.31 220.406 1283.28 220.406C1266.22 220.406 1252.67 214.828 1242.64 203.672C1232.42 192.234 1227.59 175.969 1228.16 154.875ZM1274 100.875C1269.22 111.75 1265.33 122.859 1262.33 134.203C1259.42 145.547 1257.83 155.203 1257.55 163.172C1257.36 171.047 1257.83 177.188 1258.95 181.594C1260.17 185.906 1261.86 189.562 1264.02 192.562C1268.52 198.938 1274.28 202.125 1281.31 202.125C1288.44 202.125 1295.56 199.828 1302.69 195.234C1309.81 190.641 1316.7 184.5 1323.36 176.812C1330.11 169.125 1336.48 160.266 1342.48 150.234C1348.58 140.203 1353.92 129.75 1358.52 118.875C1371.83 87.2812 1376.7 61.2188 1373.14 40.6875C1370.7 26.4375 1362.92 19.3125 1349.8 19.3125C1337.8 19.3125 1324.44 27.4688 1309.72 43.7812C1295.84 58.9688 1283.94 78 1274 100.875ZM1434.88 164.297L1433.61 175.125C1433.61 186.469 1437.41 194.203 1445 198.328C1447.62 199.734 1450.77 200.438 1454.42 200.438C1458.08 200.438 1461.36 199.828 1464.27 198.609C1467.17 197.297 1469.56 195.609 1471.44 193.547C1475.38 189.328 1477.34 184.453 1477.34 178.922C1477.34 173.391 1476.22 168.375 1473.97 163.875C1471.72 159.375 1468.91 154.875 1465.53 150.375L1454.28 136.594C1445.19 125.719 1439.09 115.828 1436 106.922C1432.91 97.9219 1431.36 89.6719 1431.36 82.1719C1431.36 74.6719 1432.25 67.5938 1434.03 60.9375C1435.91 54.1875 1438.48 47.8125 1441.77 41.8125C1445.05 35.7188 1448.98 30.1406 1453.58 25.0781C1458.17 20.0156 1463.28 15.6562 1468.91 12C1480.62 4.125 1492.25 0.1875 1503.78 0.1875C1515.31 0.1875 1524.31 1.78125 1530.78 4.96875C1537.25 8.15625 1542.45 12.1875 1546.39 17.0625C1553.7 26.25 1557.36 37.3594 1557.36 50.3906C1557.36 62.4844 1553.94 73.875 1547.09 84.5625C1540.81 94.3125 1533.78 100.5 1526 103.125C1524.31 103.969 1521.97 104.391 1518.97 104.391C1516.06 104.391 1513.58 103.969 1511.52 103.125C1509.55 102.188 1507.81 100.969 1506.31 99.4688C1503.03 96.1875 1501.39 92.625 1501.39 88.7812C1501.39 86.1562 1502.19 84.4219 1503.78 83.5781C1510.91 79.7344 1517.09 74.1562 1522.34 66.8438C1528.06 58.875 1531.06 50.9531 1531.34 43.0781C1531.62 35.1094 1529.7 29.25 1525.58 25.5C1521.55 21.6563 1516.16 19.7344 1509.41 19.7344C1502.66 19.7344 1496.56 21.2812 1491.12 24.375C1485.69 27.375 1481 31.4531 1477.06 36.6094C1468.62 47.6719 1464.41 60.75 1464.41 75.8438C1464.41 85.875 1467.88 96.4688 1474.81 107.625C1477.72 112.406 1480.86 117.141 1484.23 121.828C1487.7 126.422 1490.94 131.156 1493.94 136.031C1500.78 147.375 1504.2 157.547 1504.2 166.547C1504.2 175.547 1502.56 183.141 1499.28 189.328C1496.09 195.516 1491.83 200.906 1486.48 205.5C1474.95 215.438 1461.83 220.406 1447.11 220.406C1433.23 220.406 1422.55 216.281 1415.05 208.031C1409.05 201.375 1406.05 194.156 1406.05 186.375C1406.05 177.938 1408.44 170.812 1413.22 165C1416.88 160.594 1420.39 157.969 1423.77 157.125C1431.17 155.156 1434.88 157.547 1434.88 164.297Z" fill="#1E4141"/>
</svg>
