<svg xmlns="http://www.w3.org/2000/svg" width="370" height="126" fill="none" viewBox="0 0 370 126"><path fill="#000" d="M40.2437 38.6328C41.1812 42.7578 42.0719 47.0938 42.9156 51.6406C43.6656 55.5312 44.4625 59.8906 45.3062 64.7188C46.15 69.5 46.9234 74.3047 47.6266 79.1328C47.9547 76.3672 48.2594 73.5078 48.5406 70.5547C48.8219 67.6016 49.0797 64.6719 49.3141 61.7656C49.5953 58.8125 49.8297 55.9297 50.0172 53.1172C50.2516 50.3047 50.4625 47.6328 50.65 45.1016C51.0719 39.1953 51.4469 33.4062 51.775 27.7344L68.5094 28.2969C66.7281 37.4844 65.0172 46.5078 63.3766 55.3672C62.6734 59.1641 61.9234 63.1016 61.1266 67.1797C60.3766 71.2109 59.6266 75.2422 58.8766 79.2734C58.1266 83.2578 57.4 87.125 56.6969 90.875C55.9937 94.625 55.3609 98.0469 54.7984 101.141L38.6969 101.281C38.275 97.8594 37.8297 94.4844 37.3609 91.1562C36.9391 87.8281 36.5172 84.6172 36.0953 81.5234C35.7203 78.4297 35.3453 75.5 34.9703 72.7344C34.5953 69.9688 34.2437 67.4375 33.9156 65.1406C33.4 69.6875 32.6969 75.1016 31.8062 81.3828C30.9625 87.6172 29.9078 94.2031 28.6422 101.141L12.4703 101.281C12.0953 98.1875 11.6266 94.7891 11.0641 91.0859C10.5484 87.3359 9.98593 83.4688 9.37656 79.4844C8.76718 75.5 8.11093 71.4922 7.40781 67.4609C6.75156 63.3828 6.11874 59.4688 5.50937 55.7188C4.00937 46.9062 2.43906 37.9062 0.798431 28.7188L17.6734 28.5781C18.0953 34.0625 18.5641 39.6641 19.0797 45.3828C19.2672 47.8203 19.4781 50.4219 19.7125 53.1875C19.9469 55.9062 20.1812 58.6953 20.4156 61.5547C20.6969 64.4141 20.9312 67.2969 21.1187 70.2031C21.3531 73.1094 21.5875 75.9453 21.8219 78.7109C22.1969 76.3203 22.5719 73.9297 22.9469 71.5391C23.3687 69.1016 23.7437 66.7344 24.0719 64.4375C24.4469 62.0938 24.775 59.8438 25.0562 57.6875C25.3844 55.4844 25.6891 53.4219 25.9703 51.5C26.5797 47 27.1656 42.7109 27.7281 38.6328H40.2437ZM137.393 56.2109C137.393 63.6172 137.346 71.0234 137.252 78.4297C137.206 85.8359 137.065 93.5469 136.831 101.562L124.596 100.859V91.3672C123.19 93.8984 121.596 95.8438 119.815 97.2031C118.034 98.5156 116.346 99.5 114.752 100.156C112.877 100.906 111.026 101.328 109.198 101.422C106.948 101.422 104.838 100.93 102.87 99.9453C100.901 98.9141 99.19 97.5547 97.7369 95.8672C96.2837 94.1797 95.1353 92.2578 94.2916 90.1016C93.4947 87.8984 93.0962 85.625 93.0962 83.2812C93.0962 80.6094 93.6587 77.9844 94.7837 75.4062C95.9556 72.7812 97.9244 70.4141 100.69 68.3047C104.393 65.4453 107.604 63.0547 110.323 61.1328C113.042 59.2109 115.292 57.4766 117.073 55.9297C118.901 54.3359 120.237 52.8359 121.081 51.4297C121.971 49.9766 122.417 48.3125 122.417 46.4375C122.417 43.3438 121.901 41.0469 120.87 39.5469C119.838 38 118.479 37.2266 116.792 37.2266C115.76 37.2266 114.87 37.5078 114.12 38.0703C113.417 38.5859 112.831 39.2891 112.362 40.1797C111.94 41.0234 111.612 41.9844 111.377 43.0625C111.19 44.0938 111.096 45.125 111.096 46.1562C111.096 46.8594 111.12 47.6328 111.167 48.4766C111.26 49.3203 111.424 50.2109 111.659 51.1484L95.4869 51.4297C95.3931 50.6328 95.3228 49.8828 95.2759 49.1797C95.2291 48.4297 95.2056 47.7031 95.2056 47C95.2056 44.0938 95.6978 41.2344 96.6822 38.4219C97.6666 35.5625 99.0962 33.0312 100.971 30.8281C102.893 28.5781 105.213 26.7734 107.932 25.4141C110.651 24.0547 113.768 23.375 117.284 23.375C121.831 23.375 125.417 24.3359 128.042 26.2578C130.713 28.1328 132.729 30.6172 134.088 33.7109C135.495 36.8047 136.385 40.3203 136.76 44.2578C137.182 48.1484 137.393 52.1328 137.393 56.2109ZM121.573 76.1094C121.807 74.9375 122.018 73.6016 122.206 72.1016C122.393 70.8359 122.557 69.3125 122.698 67.5312C122.838 65.7031 122.956 63.6641 123.049 61.4141C122.299 62.4453 121.573 63.3594 120.87 64.1562C120.167 64.9531 119.51 65.6562 118.901 66.2656C118.198 66.9688 117.542 67.6016 116.932 68.1641C115.854 69.0547 114.706 70.0625 113.487 71.1875C112.268 72.2656 111.143 73.4141 110.112 74.6328C109.127 75.8516 108.284 77.1172 107.581 78.4297C106.924 79.6953 106.596 80.9375 106.596 82.1562C106.596 83.4688 107.042 84.6875 107.932 85.8125C108.823 86.8906 109.924 87.4297 111.237 87.4297C112.221 87.4297 113.229 87.1484 114.26 86.5859C115.338 86.0234 116.346 85.2266 117.284 84.1953C118.268 83.1641 119.135 81.9688 119.885 80.6094C120.635 79.25 121.198 77.75 121.573 76.1094ZM185.042 99.1016C183.824 99.1484 182.441 99.2422 180.894 99.3828C179.582 99.4766 178.035 99.5938 176.253 99.7344C174.519 99.875 172.597 100.062 170.488 100.297C170.066 84.4062 169.621 70.3672 169.152 58.1797C168.683 45.9453 168.261 35.6094 167.886 27.1719C167.417 17.3281 166.949 8.77344 166.48 1.50781L184.761 0.664062C184.761 11.2578 184.761 20.7969 184.761 29.2812C184.761 37.7188 184.761 45.2422 184.761 51.8516C184.808 58.4141 184.832 64.1562 184.832 69.0781C184.878 73.9531 184.902 78.1484 184.902 81.6641C184.949 89.8672 184.996 95.6797 185.042 99.1016ZM233.114 99.1016C231.895 99.1484 230.512 99.2422 228.965 99.3828C227.653 99.4766 226.106 99.5938 224.325 99.7344C222.59 99.875 220.668 100.062 218.559 100.297C218.137 84.4062 217.692 70.3672 217.223 58.1797C216.754 45.9453 216.332 35.6094 215.957 27.1719C215.489 17.3281 215.02 8.77344 214.551 1.50781L232.832 0.664062C232.832 11.2578 232.832 20.7969 232.832 29.2812C232.832 37.7188 232.832 45.2422 232.832 51.8516C232.879 58.4141 232.903 64.1562 232.903 69.0781C232.95 73.9531 232.973 78.1484 232.973 81.6641C233.02 89.8672 233.067 95.6797 233.114 99.1016ZM289.552 6.07812C289.177 9.875 288.849 13.5781 288.568 17.1875C288.287 20.75 288.029 24.3125 287.794 27.875C289.576 27.7813 291.333 27.7109 293.068 27.6641C294.849 27.5703 296.654 27.4297 298.482 27.2422L297.99 41.5156C296.208 41.4219 294.38 41.375 292.505 41.375C290.677 41.375 288.872 41.375 287.091 41.375C286.716 48.125 286.435 54.7344 286.247 61.2031C286.107 67.625 286.037 74.1172 286.037 80.6797C286.037 84.0547 286.06 87.4531 286.107 90.875C286.201 94.25 286.294 97.6719 286.388 101.141L270.919 101.422C271.247 91.3438 271.529 81.3828 271.763 71.5391C271.997 61.6484 272.115 51.6875 272.115 41.6562C270.333 41.75 268.529 41.8438 266.701 41.9375C264.872 41.9844 263.068 42.0781 261.287 42.2188L261.849 26.8203C263.49 27.0547 265.177 27.2422 266.912 27.3828C268.646 27.5234 270.333 27.6406 271.974 27.7344C271.974 24.0781 271.927 20.4922 271.833 16.9766C271.787 13.4609 271.693 9.875 271.552 6.21875L289.552 6.07812ZM368.42 28.1562C368.842 38.2812 369.17 48.4766 369.405 58.7422C369.686 68.9609 369.827 79.3906 369.827 90.0312C369.827 96.7812 369.545 102.43 368.983 106.977C368.42 111.523 367.295 115.18 365.608 117.945C363.92 120.758 361.506 122.75 358.366 123.922C355.225 125.141 351.077 125.75 345.92 125.75C343.295 125.75 340.272 125.633 336.85 125.398C333.428 125.164 329.538 124.766 325.178 124.203L325.741 108.805C329.163 109.039 332.209 109.227 334.881 109.367C337.553 109.508 339.78 109.625 341.561 109.719C343.67 109.859 345.498 109.93 347.045 109.93C348.17 109.93 349.131 109.789 349.928 109.508C350.725 109.273 351.358 108.805 351.827 108.102C352.342 107.445 352.717 106.508 352.952 105.289C353.186 104.07 353.303 102.5 353.303 100.578C353.303 99.9688 353.303 99.3594 353.303 98.75C353.303 98.0938 353.256 97.3672 353.163 96.5703C352.413 97.6953 351.545 98.5859 350.561 99.2422C349.623 99.8984 348.686 100.414 347.748 100.789C346.811 101.164 345.897 101.398 345.006 101.492C344.163 101.633 343.459 101.703 342.897 101.703C339.1 101.703 336.03 100.93 333.686 99.3828C331.342 97.8359 329.514 95.7266 328.202 93.0547C326.936 90.3828 326.069 87.2656 325.6 83.7031C325.131 80.0938 324.897 76.25 324.897 72.1719C324.897 70.3438 324.873 69.125 324.827 68.5156C324.827 67.8594 324.803 67.4609 324.756 67.3203C324.756 67.1797 324.756 67.1328 324.756 67.1797C324.756 67.1797 324.78 66.9453 324.827 66.4766C324.873 65.9609 324.944 65.0234 325.038 63.6641C325.131 62.3047 325.272 60.1719 325.459 57.2656C325.647 54.3594 325.858 50.5391 326.092 45.8047C326.373 41.0234 326.702 34.9531 327.077 27.5938L343.319 29C343.459 29 343.366 29.9141 343.038 31.7422C342.756 33.5234 342.405 36.0781 341.983 39.4062C341.608 42.6875 341.233 46.6484 340.858 51.2891C340.483 55.9297 340.295 61.0859 340.295 66.7578C340.295 70.1328 340.459 73.0156 340.788 75.4062C341.163 77.75 341.655 79.6719 342.264 81.1719C342.873 82.6719 343.6 83.7734 344.444 84.4766C345.334 85.1328 346.319 85.4609 347.397 85.4609C349.272 85.4609 350.819 84.0078 352.038 81.1016C353.256 78.1484 353.866 73.4609 353.866 67.0391C353.866 66.6172 353.842 66.1484 353.795 65.6328C353.795 65.0703 353.772 64.2734 353.725 63.2422C353.725 62.1641 353.678 60.7812 353.584 59.0938C353.491 57.4062 353.35 55.1797 353.163 52.4141C353.022 49.6016 352.834 46.2031 352.6 42.2188C352.413 38.1875 352.155 33.3594 351.827 27.7344L368.42 28.1562Z"/></svg>