<svg xmlns="http://www.w3.org/2000/svg" width="168.266" height="160" viewBox="0 0 168.266 160"><g transform="translate(0 0)"><g transform="translate(0)"><path d="M165.973,14.867c-4.827-4.826-14.508-2.073-30.468,8.669-13.558,9.125-29.82,22.946-45.792,38.917C66.035,86.13,48.034,109.378,42.04,123.731a20.865,20.865,0,0,0-3.065-.852,24.049,24.049,0,0,0-18.482,4.3A26.879,26.879,0,0,0,10.124,142.34,44.267,44.267,0,0,1,.948,159.6a3.929,3.929,0,0,0,.358,5.485,29.807,29.807,0,0,0,20.081,7.486,36.39,36.39,0,0,0,21.058-6.983,42.266,42.266,0,0,0,5.825-5.079A25.068,25.068,0,0,0,55,139.6c14.082-5.048,38.633-23.722,63.386-48.475C134.359,75.157,148.18,58.894,157.3,45.336,168.046,29.376,170.8,19.695,165.973,14.867ZM42.523,155.154A34.245,34.245,0,0,1,37.88,159.2c-9.114,6.507-20.272,7.26-28.377,2.25a51.892,51.892,0,0,0,8.237-17.173h0q.027-.1.049-.207a19.148,19.148,0,0,1,7.269-10.493,16.18,16.18,0,0,1,12.393-2.987A12.05,12.05,0,0,1,45.429,136C48.911,141.549,47.687,149.605,42.523,155.154Zm9.8-22.924a14.6,14.6,0,0,0-3.492-4.351c1.912-5.113,6.029-12.023,11.767-19.958L72.911,120.23C64.251,126.464,57.155,130.527,52.325,132.23Zm26.943-16.754-13.9-13.9c2.4-3.093,5-6.3,7.772-9.572l15.711,15.711Q83.861,111.926,79.268,115.477Zm70.317-72.768c-8.849,12.789-21.9,28.012-36.753,42.862-6.235,6.235-12.28,11.907-18.024,16.989L78.291,86.043c5.239-5.926,10.95-12.008,16.978-18.035,14.851-14.851,30.073-27.9,42.862-36.754,15.747-10.9,21.181-10.914,22.225-10.771C160.5,21.527,160.481,26.963,149.585,42.709Z" transform="translate(0.001 -12.575)" fill="#fff"/></g></g></svg>