<svg xmlns="http://www.w3.org/2000/svg" width="178.344" height="160" viewBox="0 0 178.344 160"><path d="M171.252,79.474V36.123a12.6,12.6,0,0,0-12.586-12.586H12.586A12.6,12.6,0,0,0,0,36.123v88.311A12.6,12.6,0,0,0,12.586,137.02h41.4l-4.739,5.1h-7.1a2.923,2.923,0,0,0,0,5.845H82.813v28.186a7.393,7.393,0,0,0,7.385,7.385h31.418A7.393,7.393,0,0,0,129,176.152v-5.936h39.333A10.024,10.024,0,0,0,178.344,160.2V89.052a10.03,10.03,0,0,0-7.092-9.578Zm1.247,9.578v.8H105.285v-.8a4.174,4.174,0,0,1,4.169-4.169h58.879A4.173,4.173,0,0,1,172.5,89.052Zm-50.883,24.691H105.285V95.7H172.5v57.862H129V121.127a7.393,7.393,0,0,0-7.385-7.384Zm1.54,11.226h-34.5v-3.841a1.541,1.541,0,0,1,1.54-1.54h31.418a1.541,1.541,0,0,1,1.54,1.54v3.841Zm42.251-85.923V79.038H109.454A10.026,10.026,0,0,0,99.439,89.052v24.691H90.2a7.392,7.392,0,0,0-7.384,7.375H5.845V39.046H165.406ZM88.657,130.814h34.5v35.653h-34.5ZM12.586,29.382H158.665A6.742,6.742,0,0,1,164.73,33.2H6.52a6.743,6.743,0,0,1,6.066-3.819ZM6.341,126.963H82.813v4.212H12.586A6.749,6.749,0,0,1,6.341,126.963Zm50.884,15.158,4.739-5.1H82.813v5.1Zm64.39,35.571H90.2a1.541,1.541,0,0,1-1.54-1.54v-3.841h34.5v3.841A1.541,1.541,0,0,1,121.615,177.692Zm46.718-13.321H129V159.4h43.5v.8A4.172,4.172,0,0,1,168.333,164.372Z" transform="translate(0 -23.537)" fill="#fff" opacity="0.8"/></svg>