<svg xmlns="http://www.w3.org/2000/svg" xmlns:xlink="http://www.w3.org/1999/xlink" width="853.479" height="576.889" viewBox="0 0 853.479 576.889"><defs><clipPath id="a"><rect width="853.479" height="576.889" fill="#fff"/></clipPath><linearGradient id="b" x1="0.5" y1="1" x2="0.5" gradientUnits="objectBoundingBox"><stop offset="0" stop-color="gray" stop-opacity="0.251"/><stop offset="0.54" stop-color="gray" stop-opacity="0.122"/><stop offset="1" stop-color="gray" stop-opacity="0.102"/></linearGradient><linearGradient id="c" x1="0" y1="0.5" x2="1" y2="0.5" xlink:href="#b"/><linearGradient id="e" x1="-1.487" y1="0.893" x2="-1.487" y2="0.279" xlink:href="#b"/><linearGradient id="f" x1="-2.825" y1="0.844" x2="-2.825" y2="0.229" xlink:href="#b"/><linearGradient id="g" x1="-0.315" y1="0.895" x2="-0.315" y2="0.281" xlink:href="#b"/><linearGradient id="h" x1="-1.653" y1="0.845" x2="-1.653" y2="0.231" xlink:href="#b"/><linearGradient id="i" x1="-0.341" y1="5.17" x2="-0.341" y2="4.346" xlink:href="#b"/><linearGradient id="j" x1="2.396" y1="7.371" x2="2.396" y2="6.327" xlink:href="#b"/></defs><g clip-path="url(#a)"><g transform="translate(136.499)"><rect width="58.894" height="259.611" transform="translate(274.022 317.278)" fill="url(#b)"/><rect width="49.595" height="254.965" transform="translate(279.443 317.278)" fill="#eceff1"/><path d="M524.574,92.31H259.337a70.385,70.385,0,0,0-26.456,5.9c-26.962,11.95-42.655,30.705-47.087,72.3v96.1l-70.282-.744c-14.134,0-19.3,22.222-19.3,37.242H570.964v-161.5C570.964,114.382,550.222,92.31,524.574,92.31Z" transform="translate(-54.647 22.7)" fill="url(#c)"/><path d="M109.352,63.815h262.8a32.193,32.193,0,0,1,32.193,32.193v160H109.352Z" transform="translate(104.992 61.27)" fill="#0083c3"/><path d="M141.105,63.815h0a71.3,71.3,0,0,1,71.3,71.3v86.007a34.892,34.892,0,0,1-34.892,34.892H104.7A34.892,34.892,0,0,1,69.81,221.116V135.11a71.3,71.3,0,0,1,71.3-71.3Z" transform="translate(67.027 61.27)" fill="#0083c3"/><path d="M141.105,63.815h0a71.3,71.3,0,0,1,71.3,71.3v86.007a34.892,34.892,0,0,1-34.892,34.892H104.7A34.892,34.892,0,0,1,69.81,221.116V135.11a71.3,71.3,0,0,1,71.3-71.3Z" transform="translate(67.027 61.27)" opacity="0.2"/><path d="M231.9,50.77H173.009v97.64h26.733V94.541H231.9Z" transform="translate(166.111 48.746)" fill="url(#b)"/><path d="M224.975,50.77h-49.6v89.892h18.6v-49.6h31Z" transform="translate(168.387 48.746)" fill="#ffcc80"/><rect width="60.682" height="98.74" transform="translate(130.081 222.014) rotate(-83.06)" fill="url(#e)"/><rect width="56.631" height="95.392" transform="translate(131.592 219.636) rotate(-83.06)" fill="#faf8e4"/><g transform="translate(140.92 168.217)" opacity="0.6"><rect width="12.14" height="8.982" transform="translate(12.051 10.383) rotate(-173.06)" fill="#0083c3"/><rect width="46.604" height="2.912" transform="translate(54.035 33.093) rotate(-173.06)" fill="#0083c3"/><rect width="33.982" height="1.939" transform="translate(53.274 39.36) rotate(-173.06)" fill="#0083c3"/></g><rect width="60.682" height="98.74" transform="translate(170.018 235.265) rotate(-83.06)" fill="url(#f)"/><rect width="56.631" height="95.392" transform="translate(171.529 232.894) rotate(-83.06)" fill="#faf8e4"/><g transform="translate(180.863 181.477)" opacity="0.6"><rect width="12.14" height="8.982" transform="translate(12.051 10.383) rotate(-173.06)" fill="#0083c3"/><rect width="46.604" height="2.912" transform="translate(54.035 33.093) rotate(-173.06)" fill="#0083c3"/><rect width="33.982" height="1.939" transform="translate(53.258 39.359) rotate(-173.06)" fill="#0083c3"/></g><rect width="82.255" height="133.837" transform="translate(82.555 262.343) rotate(-83.06)" fill="url(#g)"/><rect width="76.771" height="129.302" transform="translate(84.608 259.114) rotate(-83.06)" fill="#fff"/><g transform="translate(97.253 189.418)" opacity="0.6"><rect width="16.453" height="12.171" transform="translate(16.332 14.07) rotate(-173.06)" fill="#0083c3"/><rect width="63.175" height="3.949" transform="translate(73.235 44.862) rotate(-173.06)" fill="#0083c3"/><rect width="46.066" height="2.635" transform="translate(72.208 53.352) rotate(-173.06)" fill="#0083c3"/></g><rect width="82.255" height="133.837" transform="translate(136.693 280.303) rotate(-83.06)" fill="url(#h)"/><rect width="76.771" height="129.302" transform="translate(138.737 277.089) rotate(-83.06)" fill="#fff"/><g transform="translate(151.387 207.39)" opacity="0.6"><rect width="16.453" height="12.171" transform="translate(16.332 14.07) rotate(-173.06)" fill="#0083c3"/><rect width="63.175" height="3.949" transform="translate(73.235 44.862) rotate(-173.06)" fill="#0083c3"/><rect width="46.066" height="2.635" transform="translate(72.207 53.352) rotate(-173.06)" fill="#0083c3"/></g><path d="M194.117,97.846h0a71.065,71.065,0,0,0-27.184,5.381,71.837,71.837,0,0,1,10.138-.728h0a71.3,71.3,0,0,1,71.295,71.3V286.961h17.046V169.141A71.3,71.3,0,0,0,194.117,97.846Z" transform="translate(13.255 28.015)" opacity="0.2"/><path d="M50.338,149.213H254.924v24.8H25.536a24.8,24.8,0,0,1,24.8-24.8Z" transform="translate(24.518 143.264)" fill="#0083c3"/><path d="M50.338,149.213H254.924v24.8H25.536a24.8,24.8,0,0,1,24.8-24.8Z" transform="translate(24.518 143.264)" fill="#fff" opacity="0.2"/><path d="M266.556,55.855,264.205,57l.269-.483-.206.063.293-.214L296.232,0l16.191,13.81,13.9,12.86-3.989,1.947,4.479,7.906Z" transform="translate(253.671)" fill="url(#i)"/><path d="M309.961,7.8l12.694,11.776L265.105,48.18,295.732,8.928Z" transform="translate(254.535 7.485)" fill="#0083c3"/><path d="M309.961,7.8l12.694,11.776L265.105,48.18,295.732,8.928Z" transform="translate(254.535 7.485)" opacity="0.2"/><path d="M295.146,1.353,265.105,54.367l44.855-40.384Z" transform="translate(254.535 1.299)" fill="#0083c3"/><path d="M323,26.773,265.138,45.885,313.5,9.783Z" transform="translate(254.566 9.392)" fill="#0083c3"/><path d="M96.287,67.113l3.783.586-.586-.554h.324L99.3,66.97,30.563,1.785,13.881,28.114,0,52.132l6.426,1L3.577,66.139Z" transform="translate(0 1.713)" fill="url(#j)"/><path d="M14.761,18.156,2.083,40.132,95.022,55.263,35.163,13.582Z" transform="translate(2 13.04)" fill="#0083c3"/><path d="M14.761,18.156,2.083,40.132,95.022,55.263,35.163,13.582Z" transform="translate(2 13.04)" opacity="0.2"/><path d="M23.817,3.63l65,61.189L8.551,27.711Z" transform="translate(8.21 3.485)" fill="#0083c3"/><path d="M3.831,47.376l89.259,1.709L9.767,19.488Z" transform="translate(3.679 18.711)" fill="#0083c3"/></g></g></svg>