<svg xmlns="http://www.w3.org/2000/svg" width="90" height="160" viewBox="0 0 90 160"><path d="M87.154,161H24.846A13.88,13.88,0,0,1,11,147.087V14.913A13.88,13.88,0,0,1,24.846,1H87.154A13.88,13.88,0,0,1,101,14.913V147.087A13.88,13.88,0,0,1,87.154,161ZM94.077,14.913a6.942,6.942,0,0,0-6.923-6.957H24.846a6.942,6.942,0,0,0-6.923,6.957V28.826H94.077Zm0,20.87H17.923v90.435H94.077Zm0,97.391H17.923v13.913a6.942,6.942,0,0,0,6.923,6.957H87.154a6.942,6.942,0,0,0,6.923-6.957ZM56,150.565a6.957,6.957,0,1,1,6.923-6.957A6.942,6.942,0,0,1,56,150.565ZM31.769,46.217h6.923A3.469,3.469,0,0,1,42.154,49.7v6.957a3.469,3.469,0,0,1-3.462,3.478H31.769a3.469,3.469,0,0,1-3.462-3.478V49.7A3.469,3.469,0,0,1,31.769,46.217Zm0,24.348h6.923a3.469,3.469,0,0,1,3.462,3.478V81a3.467,3.467,0,0,1-3.462,3.478H31.769A3.467,3.467,0,0,1,28.308,81V74.043A3.469,3.469,0,0,1,31.769,70.565Zm0,24.348h6.923a3.467,3.467,0,0,1,3.462,3.478v6.957a3.467,3.467,0,0,1-3.462,3.478H31.769a3.467,3.467,0,0,1-3.462-3.478V98.391A3.467,3.467,0,0,1,31.769,94.913Zm20.769-48.7h6.923A3.469,3.469,0,0,1,62.923,49.7v6.957a3.469,3.469,0,0,1-3.462,3.478H52.538a3.469,3.469,0,0,1-3.462-3.478V49.7A3.469,3.469,0,0,1,52.538,46.217Zm0,24.348h6.923a3.469,3.469,0,0,1,3.462,3.478V81a3.467,3.467,0,0,1-3.462,3.478H52.538A3.467,3.467,0,0,1,49.077,81V74.043A3.469,3.469,0,0,1,52.538,70.565Zm0,24.348h6.923a3.467,3.467,0,0,1,3.462,3.478v6.957a3.467,3.467,0,0,1-3.462,3.478H52.538a3.467,3.467,0,0,1-3.462-3.478V98.391A3.467,3.467,0,0,1,52.538,94.913Zm20.769-48.7h6.923A3.469,3.469,0,0,1,83.692,49.7v6.957a3.469,3.469,0,0,1-3.462,3.478H73.308a3.469,3.469,0,0,1-3.462-3.478V49.7A3.469,3.469,0,0,1,73.308,46.217Zm0,24.348h6.923a3.469,3.469,0,0,1,3.462,3.478V81a3.467,3.467,0,0,1-3.462,3.478H73.308A3.467,3.467,0,0,1,69.846,81V74.043A3.469,3.469,0,0,1,73.308,70.565ZM45.615,14.913H66.385a3.478,3.478,0,0,1,0,6.957H45.615a3.478,3.478,0,0,1,0-6.957Z" transform="translate(-11 -1)" fill="#fff" fill-rule="evenodd"/></svg>