<svg xmlns="http://www.w3.org/2000/svg" width="30" height="65" viewBox="0 0 30 65">
  <g id="slide_indicator" data-name="slide indicator" transform="translate(-940 -944)">
    <g id="Rectangle_387" data-name="Rectangle 387" transform="translate(940 944)" fill="#fff" stroke="#707070" stroke-width="1">
      <rect width="30" height="65" rx="15" stroke="none"/>
      <rect x="0.5" y="0.5" width="29" height="64" rx="14.5" fill="none"/>
    </g>
    <g id="Path_66" data-name="Path 66" transform="translate(940 974)" fill="#19b2f6">
      <path d="M 15 34.5 C 11.12691020965576 34.5 7.485640048980713 32.99174118041992 4.746950149536133 30.25304985046387 C 2.008260011672974 27.51436042785645 0.5 23.87309074401855 0.5 20 L 0.5 15 C 0.5 11.12691020965576 2.008260011672974 7.485640048980713 4.746950149536133 4.746950149536133 C 7.485640048980713 2.008260011672974 11.12691020965576 0.5 15 0.5 C 18.87309074401855 0.5 22.51436042785645 2.008260011672974 25.25304985046387 4.746950149536133 C 27.99173927307129 7.485640048980713 29.5 11.12691020965576 29.5 15 L 29.5 20 C 29.5 23.87309074401855 27.99173927307129 27.51436042785645 25.25304985046387 30.25304985046387 C 22.51436042785645 32.99174118041992 18.87309074401855 34.5 15 34.5 Z" stroke="none"/>
      <path d="M 15 1 C 11.26046943664551 1 7.744760513305664 2.456249237060547 5.100509643554688 5.100509643554688 C 2.456249237060547 7.744760513305664 1 11.26046943664551 1 15 L 1 20 C 1 23.73952865600586 2.456249237060547 27.25523948669434 5.100509643554688 29.89949035644531 C 7.744760513305664 32.54375076293945 11.26046943664551 34 15 34 C 18.73952865600586 34 22.25523948669434 32.54375076293945 24.89949035644531 29.89949035644531 C 27.54375076293945 27.25523948669434 29 23.73952865600586 29 20 L 29 15 C 29 11.26046943664551 27.54375076293945 7.744760513305664 24.89949035644531 5.100509643554688 C 22.25523948669434 2.456249237060547 18.73952865600586 1 15 1 M 15 0 C 23.28426933288574 0 30 6.715730667114258 30 15 L 30 20 C 30 28.28426933288574 23.28426933288574 35 15 35 C 6.715730667114258 35 0 28.28426933288574 0 20 L 0 15 C 0 6.715730667114258 6.715730667114258 0 15 0 Z" stroke="none" fill="#707070"/>
    </g>
  </g>
</svg>
